<svg width="30" height="31" viewBox="0 0 30 31" fill="none" xmlns="http://www.w3.org/2000/svg">
<path d="M3.77513 2.79202L3.77513 2.79202C4.23394 1.91136 5.24237 1.16263 6.29961 0.898038L3.77513 2.79202ZM3.77513 2.79202C3.42829 3.4578 3.32363 4.00085 3.32221 5.0313V5.03131M3.77513 2.79202L3.32221 5.03131M3.32221 5.03131L3.32134 5.69195L2.4835 5.70857L2.48349 5.70857M3.32221 5.03131L2.48349 5.70857M2.48349 5.70857L1.4498 5.72913L1.36959 5.73073M2.48349 5.70857L1.36959 5.73073M1.36959 5.73073L1.31271 5.78731M1.36959 5.73073L1.31271 5.78731M1.31271 5.78731L1.0779 6.02095L1.07786 6.02098M1.31271 5.78731L1.07786 6.02098M1.07786 6.02098C0.976725 6.12166 0.885382 6.21504 0.840181 6.33057C0.792135 6.45337 0.804928 6.5766 0.820086 6.69937L0.820096 6.69945M1.07786 6.02098L0.820096 6.69945M0.820096 6.69945C0.83483 6.8184 0.860135 6.92526 0.913829 7.02477C0.967954 7.12508 1.04281 7.20294 1.13329 7.27667L1.13337 7.27674M0.820096 6.69945L1.13337 7.27674M1.13337 7.27674L1.34005 7.44499L1.3952 7.48989M1.13337 7.27674L1.3952 7.48989M1.3952 7.48989H1.46632M1.3952 7.48989H1.46632M1.46632 7.48989H2.4937H3.32109M1.46632 7.48989H3.32109M3.32109 7.48989V9.55787V11.6259H2.59004C2.06612 11.6259 1.7124 11.6409 1.46678 11.6996C1.33986 11.7299 1.23169 11.774 1.13982 11.8407C1.04671 11.9083 0.981489 11.991 0.929685 12.0823L0.929668 12.0823C0.850778 12.2215 0.805391 12.3668 0.804655 12.519C0.803919 12.6714 0.848039 12.8165 0.926429 12.9547L0.92644 12.9547C0.977381 13.0445 1.03838 13.1295 1.12664 13.1996C1.21547 13.2701 1.31958 13.3159 1.44352 13.3466C1.67958 13.4052 2.02556 13.4169 2.55567 13.4169H3.32109V15.4849V17.5529H2.55567C2.02556 17.5529 1.67958 17.5646 1.44352 17.6231C1.31958 17.6538 1.21547 17.6996 1.12665 17.7702C1.03838 17.8403 0.977381 17.9253 0.92644 18.0151L0.926429 18.0151C0.848039 18.1533 0.803919 18.2983 0.804655 18.4508C0.805391 18.6029 0.850778 18.7483 0.929668 18.8874L0.929685 18.8875C0.981489 18.9788 1.04671 19.0615 1.13982 19.1291C1.23169 19.1958 1.33986 19.2399 1.46678 19.2702C1.7124 19.3289 2.06612 19.3439 2.59004 19.3439H3.32109V21.4119V23.4799H2.5633C2.29693 23.4799 2.03483 23.4866 1.82645 23.4975C1.72244 23.5029 1.63018 23.5095 1.55669 23.517C1.49193 23.5236 1.41905 23.5328 1.36993 23.5499C1.36993 23.5499 1.36992 23.5499 1.36992 23.5499L1.4354 23.7388M3.32109 7.48989L3.32221 25.9632C3.32322 26.7313 3.38721 27.3084 3.57153 27.7995C3.75775 28.2957 4.06031 28.6872 4.50785 29.0962M1.4354 23.7388C1.2252 23.8117 1.00033 24.1357 1 24.3661C0.999868 24.4607 1.05069 24.6168 1.11293 24.7129C1.30767 25.0133 1.54441 25.0709 2.5856 25.0709H3.52109M1.4354 23.7388C1.52895 23.7064 2.03654 23.6799 2.5633 23.6799H3.32109L1.4354 23.7388ZM3.52109 25.0709L3.32109 25.0712L3.32134 25.2709H3.52109V25.0709ZM3.52109 25.0709L3.52221 25.963C3.5242 27.4829 3.77753 28.158 4.64276 28.9485M4.64276 28.9485L4.50784 29.0961C4.50784 29.0961 4.50785 29.0961 4.50785 29.0962M4.64276 28.9485C5.18843 29.4472 5.68965 29.7185 6.39244 29.8958C6.77442 29.9921 7.51663 30 16.2605 30C23.9854 30 25.7824 29.985 26.0805 29.9182M4.64276 28.9485L4.50785 29.0962M4.50785 29.0962L26.0805 29.9182M26.0805 29.9182C27.4554 29.6098 28.5442 28.6364 28.8976 27.3997C28.9882 27.0827 29 25.7066 29 15.4849L26.0805 29.9182ZM27.2106 27.1532L27.2106 27.1531C27.2205 27.1305 27.2405 27.0695 27.2562 26.7908C27.2715 26.5198 27.2824 26.0672 27.29 25.2841C27.3051 23.7195 27.3071 20.8511 27.3071 15.5151C27.3071 10.7972 27.3032 7.92207 27.2901 6.20161C27.2835 5.34109 27.2747 4.77112 27.2629 4.40441C27.2571 4.2208 27.2506 4.0905 27.2435 4.00115C27.2377 3.92802 27.2322 3.89481 27.2305 3.88449L27.2106 27.1532ZM27.2106 27.1532C27.0409 27.5388 26.7479 27.8773 26.4202 28.0747L26.5234 28.246L26.4202 28.0747C26.3824 28.0974 26.3497 28.1178 26.3201 28.1363C26.2032 28.2091 26.1347 28.2517 25.9989 28.2891C25.8195 28.3386 25.5277 28.3745 24.9215 28.3978C23.8276 28.4398 21.7711 28.4393 17.6441 28.4385C17.2174 28.4384 16.7686 28.4383 16.2964 28.4382C12.632 28.4379 10.3415 28.4337 8.92945 28.4216C8.22321 28.4156 7.7382 28.4075 7.41147 28.397C7.07674 28.3862 6.92511 28.373 6.87085 28.3614C6.19897 28.2172 5.73054 27.8629 5.43075 27.2804C5.35625 27.1356 5.32293 27.0553 5.30118 26.9082C5.27723 26.7462 5.26842 26.5084 5.258 26.0492L5.24034 25.2709L27.2106 27.1532ZM26.0142 2.47685L25.9417 2.66326C25.8391 2.62335 25.7364 2.59175 24.488 2.57538C23.2578 2.55925 20.9431 2.55605 16.4594 2.5516C13.9143 2.54906 11.568 2.55267 9.8383 2.56054C8.97338 2.56448 8.26293 2.56947 7.75895 2.57529C7.50687 2.5782 7.30701 2.58131 7.16551 2.58458C7.09465 2.58622 7.03928 2.58788 6.99966 2.58953C6.97466 2.59058 6.96015 2.5915 6.95306 2.59195C6.94682 2.59235 6.94633 2.59238 6.9495 2.59181C6.29227 2.71115 5.76476 3.08447 5.47471 3.62109C5.36663 3.82106 5.32713 3.89947 5.30286 4.03895C5.27565 4.19535 5.26926 4.42212 5.25813 4.91345L5.25813 4.91346L5.24045 5.6919L6.0575 5.70851C6.05751 5.70851 6.05751 5.70851 6.05752 5.70851C6.60159 5.71954 6.94878 5.73628 7.17912 5.79828C7.30117 5.83113 7.40274 5.87942 7.48774 5.95437C7.57137 6.02812 7.62593 6.11641 7.67084 6.20622L7.67085 6.20625C7.75981 6.38425 7.79583 6.56999 7.76111 6.75376C7.72642 6.93738 7.62514 7.09763 7.47765 7.23206L7.25206 7.4377L7.1948 7.48989H7.11733H6.08225H5.24717V9.55787V11.6259H5.97821C6.50214 11.6259 6.85585 11.6409 7.10148 11.6996C7.22839 11.7299 7.33656 11.774 7.42844 11.8407C7.52154 11.9083 7.58676 11.991 7.63857 12.0823L7.63857 12.0823C7.76053 12.2973 7.79771 12.5319 7.73986 12.7498C7.68185 12.9684 7.53318 13.1515 7.31898 13.2705L7.22183 13.0957L7.31898 13.2705C7.07222 13.4076 6.86661 13.4165 6.0259 13.4167L5.24717 13.4168V15.4849V17.5529H6.01258C6.37946 17.5529 6.6394 17.5583 6.82784 17.5732C7.01323 17.5879 7.14993 17.6128 7.25787 17.6637C7.72354 17.8832 7.89581 18.434 7.64182 18.8817L7.64181 18.8817C7.59087 18.9715 7.52988 19.0565 7.44161 19.1266C7.35279 19.1971 7.24867 19.2429 7.12474 19.2737C6.88867 19.3322 6.54269 19.3439 6.01258 19.3439H5.24717V21.4077V23.4751L6.11798 23.4909L7.18524 23.5101L7.26718 23.5116L7.32452 23.5702L7.51791 23.7677C7.51792 23.7677 7.51793 23.7677 7.51794 23.7677C7.95699 24.216 7.79753 24.9084 7.22614 25.1556C7.22613 25.1556 7.22613 25.1556 7.22612 25.1556L7.14672 24.972C6.9685 25.0491 6.71059 25.0709 5.97695 25.0709L26.0142 2.47685ZM26.0142 2.47685L25.9417 2.66327C26.5692 2.90714 27.0388 3.36229 27.2302 3.88128L26.0142 2.47685ZM26.4479 0.957755L25.9303 0.807891L25.903 0.799984L25.8745 0.8L16.2736 0.805383C12.3655 0.80759 9.94937 0.812715 8.47712 0.825568C7.74122 0.831992 7.23958 0.840358 6.9048 0.851323C6.73753 0.856801 6.61011 0.862983 6.51509 0.870063C6.42402 0.876849 6.35097 0.885181 6.29963 0.898033L26.4479 0.957755ZM3.52109 21.4119V23.4799V19.3439V21.4119Z" fill="#01C158" stroke="#01C158" stroke-width="0.4"/>
<mask id="path-2-outside-1_2_539" maskUnits="userSpaceOnUse" x="10" y="8" width="13" height="16" fill="black">
<rect fill="white" x="10" y="8" width="13" height="16"/>
<path fill-rule="evenodd" clip-rule="evenodd" d="M12.9246 12.3394C12.9289 10.6687 14.2927 9.25005 16.1079 9.02778C17.1653 8.89836 18.2869 9.22676 19.0712 9.89554C19.8709 10.5773 20.2414 11.335 20.2457 12.297C20.2499 13.2709 19.9072 14.0342 19.1567 14.7218C18.6831 15.1558 18.1397 15.4363 17.4713 15.5918C15.2067 16.1188 12.9189 14.4823 12.9246 12.3394ZM13.952 17.4278C14.5764 17.1379 15.0224 16.9871 15.5162 16.8987C16.013 16.8099 17.2042 16.8259 17.7534 16.9288C20.2127 17.3895 22.0242 19.3464 22.1932 21.7251C22.2374 22.3458 22.148 22.5672 21.791 22.7216C21.5857 22.8104 21.0537 22.8205 16.5761 22.8205L16.1411 22.8205C11.813 22.8207 11.3878 22.8207 11.1857 22.6084C11.1637 22.5852 11.1443 22.5596 11.1228 22.5312L11.1228 22.5311L11.1228 22.5311L11.1029 22.5049C10.9651 22.3257 10.9658 21.5736 11.1043 20.9582C11.3444 19.891 11.8298 19.0859 12.7175 18.2821C13.2348 17.8138 13.4673 17.6529 13.952 17.4278ZM18.5423 11.5021C18.333 11.1072 17.8842 10.7044 17.4654 10.5356C17.1227 10.3974 16.4454 10.3423 16.0907 10.4238C14.4964 10.7898 13.898 12.6475 15.0396 13.6871C15.5239 14.1279 15.8917 14.2628 16.606 14.2614C17.1212 14.2604 17.2487 14.2384 17.5349 14.1011C17.9838 13.8858 18.3477 13.544 18.554 13.1437C18.8022 12.6623 18.7973 11.9834 18.5423 11.5021ZM17.7672 18.3422C19.1195 18.6795 20.3231 19.8996 20.5888 21.2026L20.6351 21.4294H16.5862H12.5372L12.6337 21.0514C12.7993 20.4022 13.1623 19.819 13.7186 19.3082C14.237 18.8323 14.5824 18.6256 15.2265 18.4059C15.8844 18.1815 17.0102 18.1533 17.7672 18.3422Z"/>
</mask>
<path fill-rule="evenodd" clip-rule="evenodd" d="M12.9246 12.3394C12.9289 10.6687 14.2927 9.25005 16.1079 9.02778C17.1653 8.89836 18.2869 9.22676 19.0712 9.89554C19.8709 10.5773 20.2414 11.335 20.2457 12.297C20.2499 13.2709 19.9072 14.0342 19.1567 14.7218C18.6831 15.1558 18.1397 15.4363 17.4713 15.5918C15.2067 16.1188 12.9189 14.4823 12.9246 12.3394ZM13.952 17.4278C14.5764 17.1379 15.0224 16.9871 15.5162 16.8987C16.013 16.8099 17.2042 16.8259 17.7534 16.9288C20.2127 17.3895 22.0242 19.3464 22.1932 21.7251C22.2374 22.3458 22.148 22.5672 21.791 22.7216C21.5857 22.8104 21.0537 22.8205 16.5761 22.8205L16.1411 22.8205C11.813 22.8207 11.3878 22.8207 11.1857 22.6084C11.1637 22.5852 11.1443 22.5596 11.1228 22.5312L11.1228 22.5311L11.1228 22.5311L11.1029 22.5049C10.9651 22.3257 10.9658 21.5736 11.1043 20.9582C11.3444 19.891 11.8298 19.0859 12.7175 18.2821C13.2348 17.8138 13.4673 17.6529 13.952 17.4278ZM18.5423 11.5021C18.333 11.1072 17.8842 10.7044 17.4654 10.5356C17.1227 10.3974 16.4454 10.3423 16.0907 10.4238C14.4964 10.7898 13.898 12.6475 15.0396 13.6871C15.5239 14.1279 15.8917 14.2628 16.606 14.2614C17.1212 14.2604 17.2487 14.2384 17.5349 14.1011C17.9838 13.8858 18.3477 13.544 18.554 13.1437C18.8022 12.6623 18.7973 11.9834 18.5423 11.5021ZM17.7672 18.3422C19.1195 18.6795 20.3231 19.8996 20.5888 21.2026L20.6351 21.4294H16.5862H12.5372L12.6337 21.0514C12.7993 20.4022 13.1623 19.819 13.7186 19.3082C14.237 18.8323 14.5824 18.6256 15.2265 18.4059C15.8844 18.1815 17.0102 18.1533 17.7672 18.3422Z" fill="#87868D"/>
<path d="M16.1079 9.02778L16.0593 8.63075L16.0593 8.63075L16.1079 9.02778ZM12.9246 12.3394L13.3246 12.3405V12.3405L12.9246 12.3394ZM19.0712 9.89554L18.8117 10.1999L18.8117 10.1999L19.0712 9.89554ZM20.2457 12.297L20.6457 12.2953V12.2952L20.2457 12.297ZM19.1567 14.7218L18.8864 14.4269L18.8864 14.4269L19.1567 14.7218ZM17.4713 15.5918L17.3806 15.2022L17.3806 15.2022L17.4713 15.5918ZM15.5162 16.8987L15.4458 16.505L15.4458 16.505L15.5162 16.8987ZM13.952 17.4278L13.7836 17.065L13.7835 17.065L13.952 17.4278ZM17.7534 16.9288L17.8271 16.5356L17.8271 16.5356L17.7534 16.9288ZM22.1932 21.7251L21.7942 21.7534V21.7534L22.1932 21.7251ZM21.791 22.7216L21.6322 22.3544L21.6322 22.3545L21.791 22.7216ZM16.5761 22.8205V22.4205H16.5761L16.5761 22.8205ZM16.1411 22.8205L16.1411 22.4205H16.1411L16.1411 22.8205ZM11.1857 22.6084L11.4754 22.3326L11.4754 22.3326L11.1857 22.6084ZM11.1228 22.5312L10.7884 22.7506L10.7957 22.7617L10.8036 22.7722L11.1228 22.5312ZM11.1228 22.5311L11.4575 22.3115L11.4494 22.3002L11.1228 22.5311ZM11.1228 22.5311L11.4496 22.3L11.4414 22.2892L11.1228 22.5311ZM11.1029 22.5049L11.4215 22.263L11.4201 22.2612L11.1029 22.5049ZM11.1043 20.9582L11.4945 21.046L11.4945 21.046L11.1043 20.9582ZM12.7175 18.2821L12.4491 17.9855L12.4491 17.9856L12.7175 18.2821ZM17.4654 10.5356L17.3158 10.9065L17.3158 10.9066L17.4654 10.5356ZM18.5423 11.5021L18.8957 11.3148L18.8957 11.3148L18.5423 11.5021ZM16.0907 10.4238L16.1802 10.8136L16.1803 10.8136L16.0907 10.4238ZM15.0396 13.6871L14.7703 13.9828L14.7703 13.9828L15.0396 13.6871ZM16.606 14.2614L16.6068 14.6614H16.6068L16.606 14.2614ZM17.5349 14.1011L17.3619 13.7404L17.3619 13.7405L17.5349 14.1011ZM18.554 13.1437L18.1985 12.9604L18.1985 12.9604L18.554 13.1437ZM20.5888 21.2026L20.1969 21.2826L20.1969 21.2827L20.5888 21.2026ZM17.7672 18.3422L17.6704 18.7303L17.6704 18.7303L17.7672 18.3422ZM20.6351 21.4294V21.8294H21.1251L21.0271 21.3494L20.6351 21.4294ZM12.5372 21.4294L12.1497 21.3305L12.0223 21.8294H12.5372V21.4294ZM12.6337 21.0514L13.0213 21.1503L13.0213 21.1503L12.6337 21.0514ZM13.7186 19.3082L13.9891 19.6029L13.9891 19.6029L13.7186 19.3082ZM15.2265 18.4059L15.0973 18.0273L15.0973 18.0273L15.2265 18.4059ZM16.0593 8.63075C14.0726 8.874 12.5295 10.4382 12.5246 12.3384L13.3246 12.3405C13.3283 10.8992 14.5127 9.62609 16.1565 9.42482L16.0593 8.63075ZM19.3307 9.59117C18.458 8.84701 17.2237 8.48823 16.0593 8.63075L16.1565 9.42482C17.107 9.30848 18.1157 9.60651 18.8117 10.1999L19.3307 9.59117ZM20.6457 12.2952C20.6409 11.2051 20.2099 10.3407 19.3307 9.59115L18.8117 10.1999C19.532 10.814 19.842 11.4649 19.8457 12.2988L20.6457 12.2952ZM19.4269 15.0167C20.2563 14.2568 20.6505 13.3875 20.6457 12.2953L19.8457 12.2988C19.8494 13.1542 19.558 13.8115 18.8864 14.4269L19.4269 15.0167ZM17.5619 15.9814C18.2926 15.8114 18.8991 15.5004 19.4269 15.0167L18.8864 14.4269C18.467 14.8113 17.9868 15.0612 17.3806 15.2022L17.5619 15.9814ZM12.5246 12.3384C12.5181 14.7825 15.09 16.5567 17.5619 15.9814L17.3806 15.2022C15.3234 15.681 13.3197 14.1821 13.3246 12.3405L12.5246 12.3384ZM15.4458 16.505C14.9082 16.6012 14.4285 16.7656 13.7836 17.065L14.1204 17.7906C14.7243 17.5103 15.1366 17.373 15.5867 17.2925L15.4458 16.505ZM17.8271 16.5356C17.5186 16.4778 17.0565 16.4478 16.6205 16.4419C16.1869 16.4361 15.7334 16.4535 15.4458 16.505L15.5867 17.2925C15.7958 17.2551 16.1863 17.2361 16.6098 17.2418C17.031 17.2475 17.439 17.2769 17.6798 17.3219L17.8271 16.5356ZM22.5922 21.6967C22.4094 19.1243 20.4527 17.0275 17.8271 16.5356L17.6798 17.3219C19.9727 17.7515 21.639 19.5685 21.7942 21.7534L22.5922 21.6967ZM21.9497 23.0887C22.1881 22.9856 22.3998 22.8294 22.5134 22.548C22.6121 22.3037 22.6146 22.012 22.5922 21.6967L21.7942 21.7534C21.816 22.0589 21.7959 22.1883 21.7716 22.2485C21.7623 22.2715 21.7508 22.3031 21.6322 22.3544L21.9497 23.0887ZM16.5761 23.2205C18.8132 23.2205 20.0701 23.218 20.7932 23.2043C21.1533 23.1974 21.3912 23.1877 21.5552 23.1729C21.7168 23.1583 21.8393 23.1365 21.9497 23.0887L21.6322 22.3545C21.6399 22.3511 21.619 22.3639 21.4832 22.3761C21.3497 22.3882 21.1363 22.3976 20.778 22.4044C20.0644 22.4179 18.8166 22.4205 16.5761 22.4205V23.2205ZM16.1411 23.2205L16.5761 23.2205L16.5761 22.4205L16.1411 22.4205L16.1411 23.2205ZM10.896 22.8841C11.0149 23.0091 11.1585 23.0796 11.3508 23.1218C11.5243 23.1599 11.7627 23.1805 12.1004 23.1938C12.7831 23.2207 13.9825 23.2206 16.1411 23.2205L16.1411 22.4205C13.9716 22.4206 12.7943 22.4206 12.1319 22.3944C11.7971 22.3813 11.6207 22.362 11.5224 22.3404C11.4767 22.3304 11.462 22.3227 11.4624 22.3229C11.4631 22.3233 11.466 22.3249 11.4699 22.3279C11.4737 22.3308 11.4757 22.3329 11.4754 22.3326L10.896 22.8841ZM10.8036 22.7722C10.8223 22.797 10.8554 22.8416 10.896 22.8841L11.4754 22.3326C11.4719 22.3289 11.4663 22.3222 11.4421 22.2901L10.8036 22.7722ZM10.7884 22.7506L10.7884 22.7506L11.4573 22.3117L11.4573 22.3117L10.7884 22.7506ZM10.7962 22.7621L10.7963 22.7621L11.4494 22.3002L11.4494 22.3002L10.7962 22.7621ZM10.7844 22.7469L10.8043 22.7731L11.4414 22.2892L11.4215 22.263L10.7844 22.7469ZM10.714 20.8704C10.638 21.2082 10.6003 21.5795 10.6 21.8948C10.5999 22.0523 10.609 22.2052 10.6307 22.3385C10.6494 22.4528 10.6866 22.6197 10.7858 22.7487L11.4201 22.2612C11.4504 22.3006 11.436 22.3062 11.4203 22.2099C11.4077 22.1325 11.3999 22.0253 11.4 21.8955C11.4002 21.636 11.4321 21.3235 11.4945 21.046L10.714 20.8704ZM12.4491 17.9856C11.5062 18.8392 10.974 19.715 10.714 20.8704L11.4945 21.046C11.7148 20.0669 12.1533 19.3325 12.986 18.5786L12.4491 17.9856ZM13.7835 17.065C13.2532 17.3113 12.9876 17.498 12.4491 17.9855L12.986 18.5786C13.482 18.1295 13.6814 17.9945 14.1205 17.7906L13.7835 17.065ZM17.3158 10.9066C17.6481 11.0406 18.0242 11.3788 18.1888 11.6894L18.8957 11.3148C18.6418 10.8356 18.1202 10.3683 17.615 10.1646L17.3158 10.9066ZM16.1803 10.8136C16.3003 10.786 16.5119 10.7766 16.7501 10.796C16.9879 10.8153 17.1977 10.8589 17.3158 10.9065L17.615 10.1646C17.3904 10.074 17.0902 10.021 16.815 9.99861C16.5403 9.97626 16.2358 9.98001 16.0012 10.0339L16.1803 10.8136ZM15.309 13.3913C14.8638 12.9859 14.7577 12.4292 14.9199 11.9254C15.0833 11.4182 15.5217 10.9648 16.1802 10.8136L16.0012 10.0339C15.0654 10.2487 14.4074 10.9072 14.1584 11.6802C13.9084 12.4567 14.0739 13.3486 14.7703 13.9828L15.309 13.3913ZM16.6052 13.8614C16.2713 13.8621 16.0536 13.8303 15.8742 13.7646C15.6976 13.6998 15.5284 13.5911 15.3089 13.3913L14.7703 13.9828C15.0351 14.2239 15.2919 14.4031 15.5988 14.5156C15.903 14.6272 16.2264 14.6622 16.6068 14.6614L16.6052 13.8614ZM17.3619 13.7405C17.2348 13.8014 17.169 13.8243 17.0883 13.8382C16.9938 13.8545 16.8648 13.8609 16.6052 13.8614L16.6068 14.6614C16.8624 14.6609 17.0547 14.6558 17.2244 14.6265C17.4078 14.5949 17.5489 14.5381 17.7079 14.4617L17.3619 13.7405ZM18.1985 12.9604C18.0363 13.2751 17.741 13.5586 17.3619 13.7404L17.7079 14.4618C18.2265 14.213 18.659 13.8129 18.9096 13.327L18.1985 12.9604ZM18.1888 11.6894C18.383 12.0558 18.3862 12.5963 18.1985 12.9604L18.9095 13.327C19.2181 12.7284 19.2117 11.911 18.8957 11.3148L18.1888 11.6894ZM20.9808 21.1227C20.6824 19.6597 19.3567 18.3264 17.864 17.9541L17.6704 18.7303C18.8823 19.0326 19.9638 20.1396 20.1969 21.2826L20.9808 21.1227ZM21.0271 21.3494L20.9807 21.1226L20.1969 21.2827L20.2432 21.5095L21.0271 21.3494ZM16.5862 21.8294H20.6351V21.0294H16.5862V21.8294ZM12.5372 21.8294H16.5862V21.0294H12.5372V21.8294ZM12.2461 20.9525L12.1497 21.3305L12.9248 21.5283L13.0213 21.1503L12.2461 20.9525ZM13.4481 19.0136C12.8421 19.5699 12.4333 20.2188 12.2461 20.9525L13.0213 21.1503C13.1653 20.5857 13.4825 20.068 13.9891 19.6029L13.4481 19.0136ZM15.0973 18.0273C14.3991 18.2655 14.0058 18.5015 13.4481 19.0136L13.9891 19.6029C14.4681 19.1631 14.7658 18.9857 15.3556 18.7845L15.0973 18.0273ZM17.8641 17.9541C17.4418 17.8487 16.9335 17.8071 16.4496 17.8192C15.9679 17.8313 15.4781 17.8975 15.0973 18.0273L15.3556 18.7845C15.6327 18.69 16.0348 18.6299 16.4697 18.619C16.9025 18.6081 17.3357 18.6468 17.6704 18.7303L17.8641 17.9541Z" fill="#87868D" mask="url(#path-2-outside-1_2_539)"/>
</svg>
