<svg width="54" height="53" viewBox="0 0 54 53" fill="none" xmlns="http://www.w3.org/2000/svg">
<path d="M0.5 26.5C0.5 41.1355 12.3645 53 27 53C41.6355 53 53.5 41.1355 53.5 26.5C53.5 11.8645 41.6355 0 27 0C12.3645 0 0.5 11.8645 0.5 26.5Z" fill="#3B5998"/>
<path fill-rule="evenodd" clip-rule="evenodd" d="M30.0665 20.9289L30.4511 18.4884C29.4659 18.4213 28.4771 18.4288 27.493 18.5106C26.8067 18.602 26.1793 18.9467 25.7341 19.477C25.314 20.0455 25.1059 20.7432 25.1461 21.4491V24.6438L22.681 24.6254V27.0991L25.1461 27.1077V34.5031L27.6273 34.4969V27.1016H30.5534L30.9355 24.6278H27.6273C27.6273 24.6278 27.6273 21.8114 27.6273 21.5353C27.6382 21.4398 27.6688 21.3476 27.7173 21.2646C27.7657 21.1816 27.8309 21.1096 27.9087 21.0531C27.9865 20.9967 28.0751 20.957 28.1691 20.9367C28.263 20.9163 28.3602 20.9158 28.4544 20.9351C28.9991 20.9277 30.0665 20.9289 30.0665 20.9289Z" fill="white"/>
</svg>
