<svg width="53" height="53" viewBox="0 0 53 53" fill="none" xmlns="http://www.w3.org/2000/svg">
<path d="M0 26.5C0 41.1355 11.8645 53 26.5 53C41.1355 53 53 41.1355 53 26.5C53 11.8645 41.1355 0 26.5 0C11.8645 0 0 11.8645 0 26.5Z" fill="#6F6F6F"/>
<path fill-rule="evenodd" clip-rule="evenodd" d="M22.465 15.066C23.638 15.012 24.012 15 27 15C29.988 15 30.362 15.013 31.534 15.066C32.706 15.119 33.506 15.306 34.206 15.577C34.939 15.854 35.604 16.287 36.154 16.847C36.714 17.396 37.146 18.06 37.422 18.794C37.694 19.494 37.88 20.294 37.934 21.464C37.988 22.639 38 23.013 38 26C38 28.988 37.987 29.362 37.934 30.535C37.881 31.705 37.694 32.505 37.422 33.205C37.146 33.9391 36.7133 34.6042 36.154 35.154C35.604 35.714 34.939 36.146 34.206 36.422C33.506 36.694 32.706 36.88 31.536 36.934C30.362 36.988 29.988 37 27 37C24.012 37 23.638 36.987 22.465 36.934C21.295 36.881 20.495 36.694 19.795 36.422C19.0609 36.146 18.3958 35.7133 17.846 35.154C17.2864 34.6047 16.8533 33.9399 16.577 33.206C16.306 32.506 16.12 31.706 16.066 30.536C16.012 29.361 16 28.987 16 26C16 23.012 16.013 22.638 16.066 21.466C16.119 20.294 16.306 19.494 16.577 18.794C16.8537 18.0601 17.2871 17.3953 17.847 16.846C18.396 16.2865 19.0605 15.8534 19.794 15.577C20.494 15.306 21.294 15.12 22.464 15.066H22.465ZM31.445 17.046C30.285 16.993 29.937 16.982 27 16.982C24.063 16.982 23.715 16.993 22.555 17.046C21.482 17.095 20.9 17.274 20.512 17.425C19.999 17.625 19.632 17.862 19.247 18.247C18.882 18.6021 18.6012 19.0343 18.425 19.512C18.274 19.9 18.095 20.482 18.046 21.555C17.993 22.715 17.982 23.063 17.982 26C17.982 28.937 17.993 29.285 18.046 30.445C18.095 31.518 18.274 32.1 18.425 32.488C18.601 32.965 18.882 33.398 19.247 33.753C19.602 34.118 20.035 34.399 20.512 34.575C20.9 34.726 21.482 34.905 22.555 34.954C23.715 35.007 24.062 35.018 27 35.018C29.938 35.018 30.285 35.007 31.445 34.954C32.518 34.905 33.1 34.726 33.488 34.575C34.001 34.375 34.368 34.138 34.753 33.753C35.118 33.398 35.399 32.965 35.575 32.488C35.726 32.1 35.905 31.518 35.954 30.445C36.007 29.285 36.018 28.937 36.018 26C36.018 23.063 36.007 22.715 35.954 21.555C35.905 20.482 35.726 19.9 35.575 19.512C35.375 18.999 35.138 18.632 34.753 18.247C34.3979 17.8821 33.9657 17.6012 33.488 17.425C33.1 17.274 32.518 17.095 31.445 17.046V17.046ZM25.595 29.391C26.3797 29.7176 27.2534 29.7617 28.0669 29.5157C28.8805 29.2697 29.5834 28.7489 30.0556 28.0422C30.5278 27.3356 30.7401 26.4869 30.656 25.6411C30.572 24.7953 30.197 24.005 29.595 23.405C29.2112 23.0215 28.7472 22.7278 28.2363 22.5451C27.7255 22.3625 27.1804 22.2954 26.6405 22.3486C26.1006 22.4019 25.5792 22.5742 25.1138 22.8531C24.6485 23.1321 24.2507 23.5107 23.9493 23.9619C23.6479 24.413 23.4502 24.9253 23.3705 25.462C23.2908 25.9986 23.3312 26.5463 23.4885 27.0655C23.6459 27.5847 23.9165 28.0626 24.2807 28.4647C24.645 28.8668 25.0938 29.1832 25.595 29.391ZM23.002 22.002C23.527 21.477 24.1503 21.0605 24.8363 20.7764C25.5223 20.4922 26.2575 20.346 27 20.346C27.7425 20.346 28.4777 20.4922 29.1637 20.7764C29.8497 21.0605 30.473 21.477 30.998 22.002C31.523 22.527 31.9395 23.1503 32.2236 23.8363C32.5078 24.5223 32.654 25.2575 32.654 26C32.654 26.7425 32.5078 27.4777 32.2236 28.1637C31.9395 28.8497 31.523 29.473 30.998 29.998C29.9377 31.0583 28.4995 31.654 27 31.654C25.5005 31.654 24.0623 31.0583 23.002 29.998C21.9417 28.9377 21.346 27.4995 21.346 26C21.346 24.5005 21.9417 23.0623 23.002 22.002V22.002ZM33.908 21.188C34.0381 21.0653 34.1423 20.9177 34.2143 20.754C34.2863 20.5903 34.3248 20.4138 34.3274 20.2349C34.33 20.0561 34.2967 19.8785 34.2295 19.7128C34.1622 19.5471 34.0624 19.3965 33.936 19.27C33.8095 19.1436 33.6589 19.0438 33.4932 18.9765C33.3275 18.9093 33.1499 18.876 32.9711 18.8786C32.7922 18.8812 32.6157 18.9197 32.452 18.9917C32.2883 19.0637 32.1407 19.1679 32.018 19.298C31.7793 19.551 31.6486 19.8871 31.6537 20.2349C31.6588 20.5827 31.7992 20.9149 32.0452 21.1608C32.2911 21.4068 32.6233 21.5472 32.9711 21.5523C33.3189 21.5574 33.655 21.4267 33.908 21.188V21.188Z" fill="white"/>
</svg>
