<svg width="54" height="53" viewBox="0 0 54 53" fill="none" xmlns="http://www.w3.org/2000/svg">
<path d="M0.5 26.5C0.5 41.1355 12.3645 53 27 53C41.6355 53 53.5 41.1355 53.5 26.5C53.5 11.8645 41.6355 0 27 0C12.3645 0 0.5 11.8645 0.5 26.5Z" fill="#FF9205"/>
<path fill-rule="evenodd" clip-rule="evenodd" d="M26.9999 18.4883C27.8522 18.4927 28.6841 18.7494 29.3906 19.2261C30.0971 19.7028 30.6465 20.3781 30.9697 21.1667C31.2928 21.9553 31.375 22.822 31.2061 23.6574C31.0371 24.4928 30.6245 25.2593 30.0203 25.8604C29.4161 26.4615 28.6474 26.8702 27.8112 27.0349C26.975 27.1996 26.1088 27.1128 25.3218 26.7857C24.5348 26.4585 23.8624 25.9056 23.3893 25.1967C22.9163 24.4877 22.6638 23.6545 22.6638 22.8023C22.6648 22.2341 22.7778 21.6718 22.9963 21.1474C23.2148 20.623 23.5346 20.1468 23.9374 19.7461C24.3401 19.3455 24.8179 19.0281 25.3434 18.8123C25.8689 18.5964 26.4318 18.4864 26.9999 18.4883ZM27.0098 20.8992C27.3796 20.9028 27.74 21.0158 28.0457 21.2239C28.3514 21.4321 28.5887 21.726 28.7276 22.0687C28.8665 22.4114 28.9009 22.7876 28.8264 23.1498C28.752 23.512 28.5719 23.8441 28.3091 24.1043C28.0462 24.3644 27.7123 24.5409 27.3493 24.6116C26.9863 24.6822 26.6106 24.6439 26.2693 24.5014C25.9281 24.3588 25.6366 24.1185 25.4317 23.8107C25.2268 23.5028 25.1176 23.1413 25.1179 22.7715C25.1198 22.2725 25.3198 21.7947 25.6739 21.4432C26.028 21.0917 26.5072 20.8951 27.0061 20.8967L27.0098 20.8992ZM26.9999 28.3685C27.8266 28.3624 28.646 28.2136 29.422 27.9285C29.8545 27.6485 30.3155 27.4155 30.7975 27.2333C31.0686 27.2432 31.516 27.693 31.4396 28.8566C31.3965 29.5209 30.1848 29.7946 29.7584 30.0485C29.4799 30.1999 29.1778 30.3029 28.8648 30.3529C28.8648 30.3529 29.9088 31.4696 30.175 31.7445C30.7157 32.1384 31.1233 32.6879 31.3435 33.3197C31.2731 33.6195 31.1205 33.8937 30.9028 34.1115C30.685 34.3293 30.4107 34.4819 30.1109 34.5522C29.4488 34.2127 28.862 33.7432 28.3854 33.1718C27.6668 32.4865 27.011 31.8542 27.011 31.8542C27.011 31.8542 26.338 32.4532 25.6367 33.1459C25.1712 33.7196 24.5985 34.1972 23.9506 34.5522C23.6174 34.4663 23.3163 34.2855 23.0839 34.0317C22.8515 33.7779 22.6978 33.462 22.6416 33.1225C23.0545 32.4367 23.5704 31.8185 24.1712 31.2896C24.4783 30.9565 24.8077 30.6448 25.1573 30.3566C24.882 30.3185 24.6157 30.2317 24.3709 30.1002C23.778 29.7711 22.5085 29.426 22.5418 28.8147C22.5763 28.1836 22.7378 27.2124 23.3011 27.2124C23.7823 27.3876 24.2444 27.6114 24.6802 27.8804C25.4077 28.2128 26.2002 28.3787 26.9999 28.366V28.3685Z" fill="white"/>
</svg>
