<svg width="28" height="23" viewBox="0 0 28 23" fill="none" xmlns="http://www.w3.org/2000/svg">
<path d="M23.7601 0.223145H4.14702C3.63187 0.223145 3.21435 0.681767 3.21435 1.24762C3.21435 1.81347 3.63187 2.27209 4.14702 2.27209H23.7601C25.0679 2.27209 26.1335 3.44125 26.1335 4.88042V4.97732H4.14702C3.63187 4.97732 3.21435 5.43594 3.21435 6.00179C3.21435 6.57022 3.63187 7.02755 4.14702 7.02755H26.1335V18.121C26.1335 19.5576 25.0679 20.7268 23.7601 20.7268H4.23993C2.93208 20.7268 1.86651 19.5576 1.86651 18.121V4.77966C1.86651 4.21251 1.44781 3.7526 0.931491 3.7526C0.417524 3.7526 0 4.21251 0 4.77966V18.121C0 20.688 1.90179 22.7757 4.23993 22.7757H23.7601C26.0982 22.7757 28 20.688 28 18.121V4.88042C28 2.31085 26.0982 0.223145 23.7601 0.223145ZM11.5331 17.386C11.7142 17.386 11.8965 17.3278 12.0565 17.2103L20.2482 11.0983C20.6751 10.7805 20.7857 10.141 20.4963 9.67335C20.2082 9.20569 19.6272 9.08296 19.2002 9.40335L11.6848 15.0076L8.97148 11.6642C8.62805 11.2404 8.03764 11.2017 7.65422 11.5815C7.26963 11.9574 7.23552 12.606 7.58012 13.0284L10.8356 17.0423C11.0191 17.2684 11.2743 17.386 11.5331 17.386Z" fill="white"/>
</svg>
