<svg width="53" height="53" viewBox="0 0 53 53" fill="none" xmlns="http://www.w3.org/2000/svg">
<path d="M0 26.5C0 41.1355 11.8645 53 26.5 53C41.1355 53 53 41.1355 53 26.5C53 11.8645 41.1355 0 26.5 0C11.8645 0 0 11.8645 0 26.5Z" fill="#2AA1DA"/>
<path fill-rule="evenodd" clip-rule="evenodd" d="M32.0218 32.1698C31.9993 32.4151 31.9037 32.6481 31.7475 32.8385C31.5913 33.029 31.3817 33.1683 31.1455 33.2385C30.9094 33.3087 30.6578 33.3065 30.4229 33.2322C30.188 33.158 29.9807 33.015 29.8278 32.8218C28.4843 31.7532 26.3891 30.215 26.3891 30.215C26.3891 30.215 24.8729 32.886 24.6018 33.1596C24.5123 33.235 24.4081 33.2909 24.2958 33.3237C24.1834 33.3565 24.0653 33.3655 23.9492 33.35C23.8332 33.3346 23.7217 33.2951 23.6218 33.2341C23.522 33.173 23.4359 33.0918 23.3692 32.9956C23.3554 32.9535 23.339 32.9124 23.32 32.8724L24.1704 28.6176L30.2347 22.6607L21.9641 27.3801C21.9641 27.3801 18.2295 26.2634 17.6748 26.0453C17.5317 25.9671 17.4137 25.85 17.3345 25.7075C17.2552 25.565 17.218 25.4031 17.2271 25.2403C17.2361 25.0775 17.2909 24.9206 17.3855 24.7878C17.48 24.6549 17.6103 24.5516 17.7612 24.4897C18.55 24.0879 32.4655 18.7731 32.9339 18.6363C33.4023 18.4995 34.6348 18.1433 34.4993 19.3426C34.3637 20.5419 32.1574 31.5116 32.0218 32.1698Z" fill="white"/>
</svg>
