<svg width="51" height="29" viewBox="0 0 51 29" fill="none" xmlns="http://www.w3.org/2000/svg">
<path d="M24.9431 23.1322C23.1518 24.535 22.3542 26.4461 22.3542 26.4461C22.3542 26.4461 25.7928 27.4318 28.6839 26.1895C30.125 25.5704 31.1579 24.5146 31.8316 23.6112C29.4611 23.8189 27.0954 23.5762 24.9431 23.1322Z" fill="url(#paint0_linear_2_229)"/>
<path d="M16.5085 20.9441C16.4319 20.9124 16.3521 20.8945 16.2714 20.8896C16.1704 20.8659 16.0653 20.8529 15.957 20.8529H1.38243C0.619119 20.8529 0 21.472 0 22.2353C0 22.9986 0.619119 23.6178 1.38243 23.6178H12.1909C10.9274 25.0075 10.3825 26.2832 10.3825 26.2832C10.3825 26.2832 15.0438 27.6192 18.9629 25.9346C20.7731 25.1566 22.1074 23.8719 23.0206 22.7135C20.3299 22.0602 17.9267 21.5348 16.5085 20.9441Z" fill="url(#paint1_linear_2_229)"/>
<path d="M49.4236 11.8993C46.174 8.37439 40.6264 12.1592 40.3991 12.3172C40.3861 12.3221 40.373 12.327 40.3592 12.3327C40.0154 12.4801 38.2664 17.9381 30.6276 20.7356C29.3975 21.1861 28.086 21.2724 26.8274 21.3018C26.8257 21.3018 26.8249 21.3018 26.8233 21.3018C27.6909 21.2496 28.5666 21.1242 29.4326 20.9026C29.655 20.8708 29.8676 20.8097 30.0663 20.7225C36.4978 18.7104 39.7384 11.9172 39.7384 11.9172C39.7384 11.9172 36.0384 9.99388 31.54 9.56538V8.69699C31.54 8.00863 31.2549 7.38543 30.7971 6.93902C31.6614 6.21888 32.2129 5.13461 32.2129 3.92407C32.2129 1.76042 30.4525 0 28.2888 0C26.1252 0 24.3647 1.76042 24.3647 3.92407C24.3647 5.15335 24.9334 6.25228 25.8213 6.97241C25.383 7.41639 25.1118 8.02573 25.1118 8.69699V10.2513C25.0873 10.2594 25.0629 10.2684 25.0385 10.2766H10.6871C9.92381 10.2766 9.30469 10.8957 9.30469 11.659C9.30469 12.4223 9.92381 13.0414 10.6871 13.0414H20.2281C19.2106 13.8805 18.3731 14.7578 17.7166 15.5456H6.01603C5.25272 15.5456 4.63361 16.1647 4.63361 16.928C4.63361 17.6913 5.25272 18.3104 6.01603 18.3104H16.0946C16.4857 18.6974 17.574 19.6676 19.0835 20.1613C19.0843 20.1613 19.0843 20.1621 19.0851 20.1621C22.6679 21.5934 28.8134 23.4035 34.524 21.9746C33.0756 25.3301 34.2878 29 34.2878 29C34.2878 29 39.1201 27.5663 41.2186 24.0145C42.5546 21.7531 42.4609 19.1796 42.2165 17.6066C43.5778 17.1365 45.0058 16.4979 46.5023 15.6661C51.2549 13.0267 50.3742 12.9306 49.4236 11.8993ZM28.2888 1.79463C29.4635 1.79463 30.4191 2.75019 30.4191 3.92489C30.4191 5.09958 29.4635 6.05514 28.2888 6.05514C27.1141 6.05514 26.1586 5.09958 26.1586 3.92489C26.1586 2.75019 27.1141 1.79463 28.2888 1.79463ZM26.5349 9.42364C26.5349 8.42246 27.3463 7.61109 28.3475 7.61109C29.3487 7.61109 30.16 8.42246 30.16 9.42364V17.5936C30.16 18.5947 29.3487 19.4061 28.3475 19.4061C27.9638 19.4061 27.6086 19.2864 27.3162 19.0835C27.1793 19.0265 27.0652 18.9247 26.9927 18.7968C26.7084 18.4766 26.5349 18.0555 26.5349 17.5936V9.42364ZM45.9052 12.3449C45.8856 12.5746 45.7317 12.8231 45.5541 12.964C45.3374 13.1359 45.1117 13.1595 44.847 13.1595C44.3191 13.1595 43.9941 12.5567 44.0324 12.1013C44.0519 11.8716 44.2059 11.6231 44.3835 11.4822C44.6002 11.3103 44.8258 11.2867 45.0906 11.2867C45.6193 11.2867 45.9443 11.8895 45.9052 12.3449Z" fill="url(#paint2_linear_2_229)"/>
<defs>
<linearGradient id="paint0_linear_2_229" x1="24.657" y1="23.3393" x2="26.5686" y2="26.9355" gradientUnits="userSpaceOnUse">
<stop offset="8.09824e-07" stop-color="#F54747"/>
<stop offset="1" stop-color="#FF3F3F"/>
</linearGradient>
<linearGradient id="paint1_linear_2_229" x1="5.59336" y1="21.1864" x2="7.92109" y2="27.7924" gradientUnits="userSpaceOnUse">
<stop offset="8.09824e-07" stop-color="#F54747"/>
<stop offset="1" stop-color="#FF3F3F"/>
</linearGradient>
<linearGradient id="paint2_linear_2_229" x1="15.6988" y1="1.63016" x2="33.6759" y2="22.2781" gradientUnits="userSpaceOnUse">
<stop offset="8.09824e-07" stop-color="#F54747"/>
<stop offset="1" stop-color="#FF3F3F"/>
</linearGradient>
</defs>
</svg>
