<svg width="53" height="53" viewBox="0 0 53 53" fill="none" xmlns="http://www.w3.org/2000/svg">
<path d="M0 26.5C0 41.1355 11.8645 53 26.5 53C41.1355 53 53 41.1355 53 26.5C53 11.8645 41.1355 0 26.5 0C11.8645 0 0 11.8645 0 26.5Z" fill="#7B519D"/>
<path fill-rule="evenodd" clip-rule="evenodd" d="M22.6915 19.6259C23.1475 20.3655 24.1705 22.149 24.3184 22.4744C24.4449 22.6901 24.4847 22.9458 24.4297 23.1897C24.3748 23.4336 24.2293 23.6476 24.0226 23.7883C23.6205 24.0321 23.2446 24.3167 22.9009 24.6375C22.7284 24.9666 22.5682 26.2398 24.4663 28.1293C26.3644 30.0189 27.8928 30.4009 28.2872 29.9782C28.6816 29.5554 28.9159 29.0883 29.1624 28.8418C29.3424 28.6465 29.5888 28.5255 29.8533 28.5027C30.1179 28.4799 30.3814 28.5569 30.5921 28.7185C31.6367 29.2705 32.6454 29.888 33.6119 30.5673C34.2159 31.0332 34.6719 31.3722 34.45 31.9786C34.2462 32.5838 33.9093 33.1356 33.464 33.5933C33.1011 33.9539 32.6545 34.219 32.1641 34.3648C31.6737 34.5107 31.1548 34.5327 30.6538 34.429C29.2257 34.0784 27.87 33.4806 26.648 32.6627C25.351 31.7347 24.1458 30.6847 23.0488 29.5271C22.0458 28.5418 21.1264 27.4749 20.3003 26.3372C19.4885 24.9799 18.9017 23.5002 18.5625 21.9555C18.449 21.5477 18.438 21.1182 18.5304 20.7051C18.6229 20.292 18.8159 19.9082 19.0924 19.5877C19.5856 19.0763 20.2139 18.7155 20.9042 18.5474C21.3849 18.4217 21.9273 18.4217 22.6915 19.6259ZM26.5001 19.8219V18.4883C28.6249 18.4883 30.6627 19.3324 32.1651 20.8348C33.6676 22.3373 34.5117 24.3751 34.5117 26.4999H33.1806C33.1796 24.7287 32.4753 23.0303 31.2227 21.7781C29.97 20.5258 28.2713 19.8222 26.5001 19.8219ZM31.837 26.4987H30.5059C30.5049 25.4367 30.0825 24.4185 29.3314 23.6677C28.5803 22.9168 27.5621 22.4947 26.5001 22.4941V21.158C27.2012 21.1583 27.8955 21.2968 28.5431 21.5654C29.1908 21.834 29.7793 22.2276 30.2749 22.7236C30.7705 23.2197 31.1635 23.8085 31.4315 24.4564C31.6995 25.1044 31.8373 25.7987 31.837 26.4999V26.4987Z" fill="white"/>
</svg>
