<svg width="54" height="53" viewBox="0 0 54 53" fill="none" xmlns="http://www.w3.org/2000/svg">
<path d="M0.5 26.5C0.5 41.1355 12.3645 53 27 53C41.6355 53 53.5 41.1355 53.5 26.5C53.5 11.8645 41.6355 0 27 0C12.3645 0 0.5 11.8645 0.5 26.5Z" fill="#6695BD"/>
<path fill-rule="evenodd" clip-rule="evenodd" d="M28.8415 21.9025V25.917C28.8371 25.9833 28.8486 26.0497 28.875 26.1107C28.9013 26.1717 28.9419 26.2255 28.9932 26.2678C29.0444 26.3101 29.105 26.3395 29.1699 26.3537C29.2349 26.368 29.3023 26.3665 29.3665 26.3496C29.7363 26.3237 30.5719 22.8984 30.9429 22.1515C31.1399 21.7303 31.4562 21.3763 31.8526 21.1334C31.9775 21.0203 32.1369 20.9525 32.305 20.9411H35.8523C35.948 20.9572 36.0381 20.9975 36.114 21.058C36.1899 21.1186 36.249 21.1974 36.286 21.2872C36.323 21.377 36.3366 21.4746 36.3254 21.5711C36.3142 21.6675 36.2786 21.7595 36.222 21.8384C35.9447 22.4547 33.5658 26.288 33.4426 26.4433C33.2942 26.6437 33.1942 26.8757 33.1505 27.1212C33.199 27.4113 33.3329 27.6804 33.535 27.894C33.7816 28.1725 35.7733 30.3653 35.9595 30.5502C36.1349 30.7516 36.2522 30.997 36.2985 31.2601C36.254 31.4844 36.1294 31.6848 35.948 31.8239C35.7665 31.9629 35.5405 32.0311 35.3124 32.0157C34.5408 32.0157 32.6426 32.0157 32.4257 32.0157C31.9921 31.8639 31.5933 31.6272 31.2524 31.3193C30.975 31.0727 29.9471 29.8993 29.793 29.7453C29.7408 29.6826 29.6742 29.6335 29.5988 29.6024C29.5234 29.5712 29.4416 29.5589 29.3603 29.5666C29.1755 29.5666 28.8242 29.585 28.8402 30.2876C28.8843 30.7743 28.7821 31.2631 28.5469 31.6915C28.4265 31.8069 28.2839 31.8965 28.1277 31.9548C27.9715 32.013 27.805 32.0388 27.6385 32.0304C26.3777 32.1069 25.1239 31.7941 24.0468 31.1344C22.1068 29.9302 19.898 26.712 18.8701 24.6585C18.2569 23.639 17.878 22.496 17.7608 21.3121C17.8224 21.0952 17.8224 20.9423 18.0393 20.9423C18.2562 20.9423 20.9839 20.9423 21.244 20.9423C21.4243 21.0312 21.5747 21.1709 21.6766 21.3441C21.7691 21.4674 22.4741 23.5775 22.6898 23.9485C22.9055 24.3195 23.9691 26.3521 24.546 26.3521C24.7375 26.3144 24.9064 26.2026 25.0158 26.041C25.1253 25.8794 25.1664 25.6811 25.1302 25.4892C25.1302 24.9962 25.1302 23.05 25.1302 22.8023C24.8957 22.2558 24.466 21.8163 23.9248 21.5697C24.0596 21.3907 24.2315 21.243 24.4287 21.1366C24.6259 21.0302 24.8438 20.9677 25.0674 20.9534C25.8069 20.9226 27.6619 20.9226 28.0625 20.983C28.2775 21.0249 28.4718 21.1389 28.6134 21.306C28.755 21.4731 28.8355 21.6835 28.8415 21.9025Z" fill="white"/>
</svg>
