<svg width="53" height="53" viewBox="0 0 53 53" fill="none" xmlns="http://www.w3.org/2000/svg">
<path d="M0 26.5C0 41.1355 11.8645 53 26.5 53C41.1355 53 53 41.1355 53 26.5C53 11.8645 41.1355 0 26.5 0C11.8645 0 0 11.8645 0 26.5Z" fill="#65BC54"/>
<path fill-rule="evenodd" clip-rule="evenodd" d="M26.5 35.7441C24.7571 35.7397 23.0514 35.2395 21.5821 34.302L17.2558 35.7441L18.698 31.4166C17.6115 29.6828 17.132 27.6369 17.3353 25.6009C17.5385 23.5648 18.4128 21.6541 19.8205 20.1691C21.2283 18.6842 23.0896 17.7093 25.1119 17.3978C27.1342 17.0863 29.2027 17.4559 30.9921 18.4484C32.7814 19.4409 34.1901 21 34.9966 22.8805C35.803 24.761 35.9615 26.8562 35.4472 28.8367C34.9328 30.8172 33.7748 32.5705 32.1551 33.8209C30.5355 35.0713 28.5462 35.7478 26.5 35.7441ZM28.5091 27.9001C29.1238 28.1011 29.7493 28.2678 30.3826 28.3993C30.4492 28.4091 30.5131 28.4323 30.5705 28.4674C30.628 28.5024 30.6778 28.5488 30.7169 28.6036C30.756 28.6583 30.7837 28.7204 30.7983 28.7861C30.8129 28.8519 30.8139 28.9199 30.8016 28.986V29.3348C30.8077 29.4615 30.7842 29.5879 30.7329 29.7039C30.6815 29.8198 30.6037 29.9223 30.5058 30.0029C30.202 30.3113 29.8423 30.5589 29.4458 30.7326C28.8609 30.8021 28.2679 30.7505 27.7038 30.5809C27.1397 30.4112 26.6167 30.1272 26.1672 29.7465C25.5874 29.3581 25.0467 28.9144 24.5526 28.4215C24.0606 27.9246 23.6149 27.3837 23.2214 26.8056C22.8437 26.3559 22.5624 25.8334 22.3949 25.2705C22.2274 24.7076 22.1774 24.1162 22.2477 23.5332C22.4217 23.1389 22.6684 22.781 22.9749 22.4781C23.053 22.3782 23.1547 22.2993 23.2709 22.2486C23.387 22.1978 23.5142 22.1767 23.6405 22.1872H23.9979C24.1327 22.1686 24.2695 22.2042 24.3781 22.2862C24.4867 22.3683 24.5582 22.49 24.5771 22.6248C24.762 23.3545 24.8976 23.882 25.0825 24.4736C25.1565 24.7201 25.0703 24.7793 24.8731 24.9272C24.7498 25.0221 24.6512 25.0911 24.5526 25.1651C24.4955 25.1898 24.4441 25.2264 24.402 25.2723C24.3599 25.3181 24.3279 25.3724 24.3081 25.4314C24.2884 25.4905 24.2813 25.553 24.2874 25.615C24.2934 25.677 24.3123 25.7371 24.343 25.7912C24.6578 26.397 25.0607 26.9528 25.5386 27.4404C26.0254 27.9192 26.5825 28.3211 27.1903 28.6323C27.2447 28.6625 27.3047 28.6811 27.3666 28.687C27.4286 28.6928 27.4911 28.6857 27.5502 28.6661C27.6093 28.6465 27.6638 28.6149 27.71 28.5732C27.7562 28.5315 27.7932 28.4807 27.8188 28.424C27.8927 28.3242 27.9544 28.2317 28.053 28.1023C28.0685 28.0581 28.0928 28.0174 28.1244 27.9828C28.1559 27.9481 28.1939 27.9201 28.2364 27.9004C28.279 27.8808 28.325 27.8699 28.3719 27.8683C28.4187 27.8668 28.4654 27.8747 28.5091 27.8915V27.9001Z" fill="white"/>
</svg>
